# xmcd
#
# Track frame offsets: 
#        150
#        21788
#        42882
#        62707
#        88223
#        106617
#        128821
#        151506
#        163080
#        178896
#
# Disc length: 2606 seconds
#
# Revision: 0
# Processed by: cddbd v1.5.2PL0 Copyright (c) Steve Scherf et al.
# Submitted via: ExactAudioCopyFreeDBPlugin 1.0
#
DISCID=760a2c0a
DTITLE=Young, Jubal Lee - Not Another Beautiful Day
DYEAR=2005
DGENRE=Americana
TTITLE0=Not Another Beautiful Day
TTITLE1=A Thousand Ways to Say Goodbye
TTITLE2=Cradled in Love
TTITLE3=Jig (w Steve Young)
TTITLE4=Can't Get You Out of My Heart
TTITLE5=The Way I Am (w David Olney)
TTITLE6=For Sara
TTITLE7=Someday
TTITLE8=Free
TTITLE9=I Might Be Crazy
EXTD=
EXTT0=
EXTT1=
EXTT2=
EXTT3=
EXTT4=
EXTT5=
EXTT6=
EXTT7=
EXTT8=
EXTT9=
PLAYORDER=
